<svg xmlns="http://www.w3.org/2000/svg" xmlns:xlink="http://www.w3.org/1999/xlink" width="1080" zoomAndPan="magnify" viewBox="0 0 810 1012.49997" height="1350" preserveAspectRatio="xMidYMid meet" version="1.0"><defs><g/></defs><g fill="#000000" fill-opacity="1"><g transform="translate(228.73501, 500.824093)"><g><path d="M 7.375 0 L 7.375 -63.078125 L 29.140625 -63.078125 L 29.140625 -56.4375 L 29.390625 -56.4375 C 35.046875 -62.09375 41.070312 -64.921875 47.46875 -64.921875 C 52.0625 -64.921875 56.363281 -63.976562 60.375 -62.09375 C 64.394531 -60.207031 67.429688 -57.300781 69.484375 -53.375 C 75.867188 -61.070312 82.832031 -64.921875 90.375 -64.921875 C 97.101562 -64.921875 102.882812 -63.035156 107.71875 -59.265625 C 112.550781 -55.492188 114.96875 -49.59375 114.96875 -41.5625 L 114.96875 0 L 93.203125 0 L 93.203125 -35.65625 C 93.203125 -39.019531 92.28125 -41.828125 90.4375 -44.078125 C 88.59375 -46.335938 85.828125 -47.46875 82.140625 -47.46875 C 78.941406 -47.46875 76.503906 -46.503906 74.828125 -44.578125 C 73.148438 -42.648438 72.226562 -40.332031 72.0625 -37.625 L 72.0625 0 L 50.296875 0 L 50.296875 -35.65625 C 50.296875 -39.019531 49.375 -41.828125 47.53125 -44.078125 C 45.6875 -46.335938 42.921875 -47.46875 39.234375 -47.46875 C 35.867188 -47.46875 33.34375 -46.421875 31.65625 -44.328125 C 29.976562 -42.234375 29.140625 -39.753906 29.140625 -36.890625 L 29.140625 0 Z M 7.375 0 "/></g></g></g><g fill="#000000" fill-opacity="1"><g transform="translate(338.277673, 500.824093)"><g><path d="M 4.546875 15.5 L 22.375 6.765625 C 25.65625 12.171875 31.351562 14.875 39.46875 14.875 C 43.238281 14.875 46.742188 13.664062 49.984375 11.25 C 53.222656 8.832031 54.84375 5.125 54.84375 0.125 L 54.84375 -4.546875 C 50.988281 -0.285156 44.101562 1.84375 34.1875 1.84375 C 25.082031 1.84375 17.578125 -1.375 11.671875 -7.8125 C 5.773438 -14.25 2.828125 -22.140625 2.828125 -31.484375 C 2.828125 -40.828125 5.773438 -48.734375 11.671875 -55.203125 C 17.578125 -61.679688 25.082031 -64.921875 34.1875 -64.921875 C 42.300781 -64.921875 49.0625 -62.421875 54.46875 -57.421875 L 54.84375 -57.421875 L 54.84375 -63.078125 L 76.609375 -63.078125 L 76.609375 1.71875 C 76.609375 11.96875 73.207031 19.878906 66.40625 25.453125 C 59.601562 31.023438 50.625 33.8125 39.46875 33.8125 C 21.4375 33.8125 9.796875 27.707031 4.546875 15.5 Z M 30.1875 -42.171875 C 27.363281 -39.390625 25.953125 -35.828125 25.953125 -31.484375 C 25.953125 -27.140625 27.300781 -23.59375 30 -20.84375 C 32.707031 -18.09375 36.273438 -16.71875 40.703125 -16.71875 C 44.960938 -16.71875 48.460938 -18.109375 51.203125 -20.890625 C 53.953125 -23.679688 55.328125 -27.210938 55.328125 -31.484375 C 55.328125 -35.828125 53.910156 -39.390625 51.078125 -42.171875 C 48.253906 -44.960938 44.796875 -46.359375 40.703125 -46.359375 C 36.523438 -46.359375 33.019531 -44.960938 30.1875 -42.171875 Z M 30.1875 -42.171875 "/></g></g></g><g fill="#000000" fill-opacity="1"><g transform="translate(410.690265, 500.824093)"><g><path d="M 68.375 -63.078125 L 37.140625 -16.59375 L 65.90625 -16.59375 L 65.90625 0 L 0.609375 0 L 31.84375 -46.484375 L 5.78125 -46.484375 L 5.78125 -63.078125 Z M 68.375 -63.078125 "/></g></g></g><g fill="#000000" fill-opacity="1"><g transform="translate(468.103294, 500.824093)"><g><path d="M 7.375 0 L 7.375 -63.078125 L 29.140625 -63.078125 L 29.140625 -56.4375 L 29.390625 -56.4375 C 35.046875 -62.09375 41.070312 -64.921875 47.46875 -64.921875 C 50.582031 -64.921875 53.675781 -64.507812 56.75 -63.6875 C 59.820312 -62.875 62.769531 -61.601562 65.59375 -59.875 C 68.425781 -58.15625 70.722656 -55.71875 72.484375 -52.5625 C 74.253906 -49.40625 75.140625 -45.738281 75.140625 -41.5625 L 75.140625 0 L 53.375 0 L 53.375 -35.65625 C 53.375 -38.9375 52.328125 -41.804688 50.234375 -44.265625 C 48.140625 -46.722656 45.414062 -47.953125 42.0625 -47.953125 C 38.78125 -47.953125 35.804688 -46.679688 33.140625 -44.140625 C 30.472656 -41.597656 29.140625 -38.769531 29.140625 -35.65625 L 29.140625 0 Z M 7.375 0 "/></g></g></g><g fill="#000000" fill-opacity="1"><g transform="translate(537.811055, 500.824093)"><g><path d="M 21.390625 -26.3125 C 25.328125 -26.3125 28.664062 -24.9375 31.40625 -22.1875 C 34.15625 -19.445312 35.53125 -16.109375 35.53125 -12.171875 C 35.53125 -8.316406 34.15625 -5.015625 31.40625 -2.265625 C 28.664062 0.472656 25.328125 1.84375 21.390625 1.84375 C 17.535156 1.84375 14.234375 0.472656 11.484375 -2.265625 C 8.742188 -5.015625 7.375 -8.316406 7.375 -12.171875 C 7.375 -16.109375 8.742188 -19.445312 11.484375 -22.1875 C 14.234375 -24.9375 17.535156 -26.3125 21.390625 -26.3125 Z M 21.390625 -26.3125 "/></g></g></g></svg>