<svg xmlns="http://www.w3.org/2000/svg" xmlns:xlink="http://www.w3.org/1999/xlink" width="1366" zoomAndPan="magnify" viewBox="0 0 1024.5 576" height="768" preserveAspectRatio="xMidYMid meet" version="1.0"><defs><g/><clipPath id="72a5d19dcf"><path d="M 0 0.140625 L 1024 0.140625 L 1024 575.859375 L 0 575.859375 Z M 0 0.140625 " clip-rule="nonzero"/></clipPath></defs><g clip-path="url(#72a5d19dcf)"><path fill="#ffffff" d="M 0 0.140625 L 1024 0.140625 L 1024 575.859375 L 0 575.859375 Z M 0 0.140625 " fill-opacity="1" fill-rule="nonzero"/><path fill="#ffffff" d="M 0 0.140625 L 1024 0.140625 L 1024 575.859375 L 0 575.859375 Z M 0 0.140625 " fill-opacity="1" fill-rule="nonzero"/><rect x="-102.45" width="1229.4" fill="#f1efe7" y="-57.6" height="691.2" fill-opacity="1"/></g><g fill="#000000" fill-opacity="1"><g transform="translate(341.633395, 303.849745)"><g><path d="M 74.015625 -47 C 68.921875 -46.125 64.875 -44.265625 60.5625 -41.109375 C 59.765625 -40.484375 58.875 -39.875 57.828125 -39.515625 C 57.125 -40.65625 56.59375 -41.71875 55.796875 -42.59375 C 52.71875 -45.9375 48.5 -46.640625 44.453125 -47 C 38.546875 -47.609375 33.796875 -46.03125 28.6875 -42.859375 C 27.375 -42.078125 26.234375 -41.015625 24.734375 -40.484375 C 23.234375 -42.25 22.53125 -44.53125 20.5 -45.9375 C 18.21875 -45.9375 15.84375 -45.859375 13.375 -45.859375 C 11 -45.765625 8.53125 -46.203125 5.8125 -45.765625 C 5.1875 -41.890625 5.890625 -38.109375 5.640625 -34.328125 C 5.375 -30.625 5.640625 -26.84375 5.640625 -23.140625 C 5.640625 -19.28125 5.640625 -15.484375 5.453125 -11.703125 C 5.1875 -7.921875 5.28125 -4.140625 5.453125 -0.265625 C 5.71875 -0.09375 6.078125 0.171875 6.421875 0.265625 C 13.03125 0.4375 19.359375 0 26.234375 -0.171875 C 26.75 -10.90625 25.78125 -21.5625 26.40625 -32.296875 C 26.671875 -33.265625 27.375 -33.703125 27.984375 -34.234375 C 29.3125 -35.296875 29.921875 -35.640625 31.59375 -36.171875 C 35.125 -37.234375 38.109375 -36.34375 38.109375 -31.859375 C 38.203125 -26.234375 38.640625 -21.65625 38.203125 -15.046875 C 38.203125 -10.5625 38.109375 -6.078125 38.015625 -1.578125 C 38.015625 -0.96875 37.9375 -0.359375 38.640625 0.265625 C 45.234375 -0.53125 52.109375 0.359375 58.96875 -0.09375 C 59.40625 -0.609375 59.5 -1.3125 59.40625 -2.109375 C 59.328125 -3 59.234375 -3.875 59.234375 -4.671875 C 59.140625 -10.390625 59.140625 -16.109375 59.0625 -21.734375 C 58.96875 -25.171875 59.328125 -28.515625 59.59375 -32.21875 C 60.8125 -33.890625 61.96875 -34.15625 63.375 -35.296875 C 64.515625 -36.265625 65.3125 -36.4375 66.796875 -36.53125 C 68.734375 -36.53125 70.765625 -34.859375 70.9375 -32.390625 C 71.03125 -30.625 71.03125 -28.78125 71.03125 -27.015625 C 71.03125 -22.265625 70.9375 -17.515625 71.03125 -12.765625 C 71.03125 -8.984375 71.03125 -5.1875 71.109375 -1.3125 C 71.109375 -0.703125 71.296875 -0.171875 72.078125 0.359375 C 78.59375 0.171875 85.28125 0.53125 91.96875 -0.09375 C 92.6875 -0.875 92.59375 -1.671875 92.59375 -2.46875 C 92.5 -4.484375 92.421875 -6.515625 92.421875 -8.453125 C 92.421875 -14 92.328125 -19.453125 92.59375 -24.90625 C 92.765625 -28.953125 92.6875 -32.921875 91.53125 -36.875 C 90.75 -39.609375 89.59375 -42.25 87.140625 -44.09375 C 83.265625 -47 78.6875 -47.875 74.015625 -47 Z M 74.015625 -47 "/></g></g></g><g fill="#000000" fill-opacity="1"><g transform="translate(431.498322, 303.849745)"><g><path d="M 25.96875 -47.53125 C 24.296875 -47.53125 22.625 -47.09375 21.03125 -46.640625 C 15.578125 -45.15625 12.140625 -43.125 9.234375 -38.734375 C 7.484375 -36.265625 6.34375 -33.96875 5.375 -31.15625 C 3.953125 -27.203125 3.703125 -23.140625 4.21875 -19.015625 C 4.578125 -15.9375 5.109375 -12.765625 6.34375 -9.6875 C 7.125 -7.921875 9.421875 -3.703125 11 -3.078125 C 12.765625 -1.3125 14.78125 -0.4375 17.25 0.09375 C 20.15625 0.796875 23.140625 1.234375 26.234375 1.140625 C 30.625 1.140625 35.296875 0.265625 39.078125 -2.203125 C 40.484375 -3.078125 41.375 -3.25 42.953125 -4.40625 C 42.953125 -3 43.046875 -1.9375 42.953125 -0.796875 C 42.421875 4.671875 39.78125 6.953125 34.234375 8.28125 C 31.515625 8.890625 28.25 8.890625 25.609375 8.625 C 21.734375 8.09375 18.921875 7.65625 15.484375 5.8125 C 14.171875 5.109375 13.109375 4.140625 11.703125 3.78125 C 10.828125 3.953125 10.46875 4.578125 10.03125 5.109375 C 9.0625 6.34375 7.484375 8.53125 6.6875 9.859375 C 5.8125 11.265625 6.34375 11.796875 8.09375 13.203125 C 10.203125 14.609375 11.53125 15.140625 14.078125 16.1875 C 22 19.453125 31.6875 18.921875 40.046875 18.21875 C 54.125 16.453125 59.671875 11.96875 61.78125 7.484375 C 64.25 3.078125 64.421875 0 64.609375 -4.84375 C 64.609375 -7.046875 64.515625 -9.234375 64.515625 -11.4375 C 64.34375 -15.40625 65.046875 -19.28125 64.78125 -23.140625 C 64.34375 -29.75 64.875 -36.4375 64.953125 -43.046875 C 64.953125 -45.59375 64.515625 -46.203125 61.96875 -46.296875 C 59.140625 -46.390625 56.328125 -46.03125 53.59375 -45.859375 C 52.1875 -45.765625 50.875 -46.125 49.46875 -45.765625 C 47.96875 -44.359375 46.390625 -42.859375 44.796875 -41.546875 C 43.921875 -41.8125 43.296875 -42.421875 42.6875 -42.859375 C 40.21875 -44.96875 37.234375 -46.203125 34.234375 -46.90625 C 31.59375 -47.53125 28.78125 -47.4375 25.96875 -47.53125 Z M 33.53125 -36.4375 C 36.4375 -37.5 39.25 -37.140625 41.546875 -34.859375 C 42.515625 -33.890625 43.125 -32.921875 42.953125 -31.421875 C 42.859375 -30.453125 42.859375 -29.390625 42.859375 -28.421875 L 42.6875 -19.625 C 42.6875 -18.125 42.859375 -16.640625 42.859375 -15.140625 C 42.859375 -13.8125 42.515625 -12.765625 41.375 -11.875 C 39.953125 -10.734375 38.734375 -9.5 36.875 -8.984375 C 34.328125 -8.359375 32.390625 -9.234375 30.8125 -11.09375 C 29.140625 -12.9375 28.34375 -15.140625 27.8125 -17.421875 C 26.84375 -21.21875 26.40625 -24.296875 27.28125 -28.171875 C 28.171875 -31.78125 29.75 -35.03125 33.53125 -36.4375 Z M 33.53125 -36.4375 "/></g></g></g><g fill="#000000" fill-opacity="1"><g transform="translate(493.637805, 303.849745)"><g><path d="M 53.078125 -46.203125 C 37.671875 -45.328125 22.1875 -46.390625 6.34375 -45.9375 C 6.25 -43.390625 5.8125 -40.21875 6.6875 -37.9375 C 7.390625 -37.40625 8.09375 -37.3125 8.71875 -37.40625 L 27.984375 -37.671875 C 28.34375 -37.671875 28.78125 -37.9375 29.140625 -37.234375 C 21.21875 -28.078125 13.546875 -18.046875 4.84375 -9.59375 C 4.84375 -6.25 5.109375 -3.25 5.109375 -0.265625 C 5.546875 0.265625 5.890625 0.09375 6.421875 0.09375 C 23.59375 0.171875 40.921875 0.96875 54.125 -0.171875 C 54.390625 -1.5 54.3125 -7.125 53.953125 -8.453125 C 50.515625 -8.09375 47 -7.828125 43.484375 -7.921875 C 39.875 -8.015625 35.46875 -7.390625 31.859375 -7.75 C 32.125 -8.796875 33.359375 -9.859375 33.796875 -10.46875 C 38.375 -16.28125 42.859375 -22.1875 47.4375 -27.984375 C 49.28125 -30.359375 51.21875 -32.5625 53.25 -34.859375 C 53.78125 -35.46875 54.046875 -36.171875 54.046875 -37.046875 C 53.78125 -39.4375 53.78125 -41.8125 53.859375 -44.1875 C 53.859375 -44.890625 53.6875 -45.5 53.078125 -46.203125 Z M 53.078125 -46.203125 "/></g></g></g><g fill="#000000" fill-opacity="1"><g transform="translate(543.718922, 303.849745)"><g><path d="M 48.671875 -46.640625 C 42.78125 -48.0625 37.3125 -46.734375 31.859375 -44.71875 C 29.3125 -43.75 27.109375 -42.328125 24.828125 -40.75 C 23.234375 -42.078125 22.4375 -44.453125 21.296875 -45.9375 C 14.515625 -46.734375 10.65625 -46.03125 5.375 -45.9375 C 5.1875 -30.71875 5.28125 -15.140625 5.8125 0 L 23.859375 0 C 25 0 26.140625 0.09375 27.109375 -0.796875 C 27.203125 -4.578125 26.84375 -8.1875 26.75 -11.875 C 26.578125 -17.609375 26.671875 -23.234375 26.671875 -28.953125 C 26.671875 -30.28125 26.9375 -31.59375 27.28125 -32.734375 C 29.3125 -34.234375 31.0625 -35.90625 33.359375 -36.796875 C 36.96875 -38.109375 40.84375 -35.828125 40.3125 -31.78125 C 40.3125 -29.046875 40.21875 -26.75 40.40625 -24.203125 C 40.65625 -20.59375 40.578125 -16.90625 40.578125 -13.203125 C 40.578125 -9.859375 40.65625 -6.421875 40.65625 -3 C 40.65625 -2.203125 40.484375 -1.234375 40.921875 -0.359375 C 41.71875 0.4375 42.515625 0.4375 43.484375 0.4375 C 45.6875 0.265625 47.53125 0.171875 49.734375 0.171875 C 53.515625 0.09375 57.296875 0.09375 61.078125 0 C 61.515625 0 61.875 0 62.234375 -0.4375 C 62.046875 -7.21875 62.046875 -14.078125 61.78125 -20.953125 C 61.609375 -25.078125 61.875 -29.21875 61.609375 -33.359375 C 61.265625 -39.078125 58.09375 -42.78125 53.34375 -45.421875 C 51.84375 -46.203125 50.25 -46.296875 48.671875 -46.640625 Z M 48.671875 -46.640625 "/></g></g></g><g fill="#000000" fill-opacity="1"><g transform="translate(603.129877, 303.849745)"><g><path d="M 9.765625 -15.9375 C 8.28125 -15.046875 6.859375 -14 5.984375 -12.328125 C 3.171875 -6.515625 5.8125 -1.578125 11.09375 0.171875 C 12.5 0.703125 14.078125 0.703125 15.578125 0.703125 C 17.78125 0.796875 19.890625 0.265625 21.828125 -0.703125 C 26.5 -3 29.3125 -10.03125 23.328125 -14.96875 C 19.546875 -18.046875 14.078125 -18.3125 9.765625 -15.9375 Z M 9.765625 -15.9375 "/></g></g></g></svg>