<svg width="120" height="28" viewBox="0 0 120 28" fill="none" xmlns="http://www.w3.org/2000/svg">
<path d="M29.0384 0.219845C26.8786 0.594405 25.1695 1.37492 23.346 2.71616C23.0096 2.97409 22.6395 3.23426 22.191 3.38454C21.8971 2.89783 21.6729 2.45374 21.3364 2.08143C20.0378 0.670662 18.2525 0.370117 16.5412 0.222088C14.0516 -0.0358422 12.042 0.632533 9.88209 1.96928C9.32585 2.30572 8.83915 2.75429 8.2089 2.97409C7.57866 2.2317 7.27811 1.26278 6.42358 0.670662C5.4569 0.670662 4.4521 0.708791 3.41365 0.708791C2.40884 0.74692 1.3659 0.558519 0.213069 0.74692C-0.0448611 2.38197 0.251198 3.98114 0.139054 5.57806C0.0269107 7.14359 0.139054 8.74051 0.139054 10.3015C0.139054 11.8626 0.139054 13.5358 0.0650395 15.1372C-0.0426183 16.7363 -0.00897521 18.3333 0.0650395 19.9683C0.177183 20.0423 0.327455 20.1545 0.475485 20.1926C3.26562 20.2666 5.9436 20.0805 8.83915 20.0065C9.06344 15.4691 8.65748 10.9699 8.91317 6.4326C9.02531 6.02664 9.32361 5.83824 9.58603 5.61395C10.1423 5.16986 10.4047 5.01959 11.1089 4.7953C12.596 4.35121 13.8609 4.72129 13.8609 6.61876C13.8991 9.00293 14.0852 10.9318 13.8991 13.7219C13.8991 15.6194 13.8609 17.5169 13.8251 19.4143C13.8251 19.6723 13.7869 19.9324 14.0875 20.1949C16.8731 19.8584 19.7731 20.233 22.6754 20.0446C22.8616 19.8203 22.8997 19.5265 22.8616 19.19C22.8235 18.8155 22.7876 18.4477 22.7876 18.1112C22.7494 15.6957 22.7494 13.2801 22.7135 10.8959C22.6754 9.44702 22.8257 8.03625 22.9378 6.47073C23.4559 5.76422 23.9382 5.65208 24.537 5.1721C25.0192 4.76166 25.3557 4.6854 25.9859 4.64951C26.8045 4.64951 27.6591 5.36051 27.7331 6.39671C27.7712 7.14359 27.7712 7.92411 27.7712 8.66874C27.7712 10.6784 27.7331 12.6835 27.7712 14.6908C27.7712 16.29 27.7712 17.8869 27.8094 19.5265C27.8094 19.7844 27.8834 20.0087 28.2198 20.233C30.9673 20.159 33.7933 20.307 36.6216 20.0468C36.9199 19.7104 36.884 19.3784 36.884 19.042C36.8459 18.1875 36.81 17.3307 36.81 16.5143C36.81 14.1727 36.7719 11.8648 36.884 9.5614C36.958 7.85009 36.9221 6.17915 36.4354 4.50597C36.1035 3.35089 35.6168 2.23394 34.5761 1.45567C32.941 0.226574 31.0054 -0.1435 29.0384 0.226574V0.219845Z" fill="#F7F3F2"/>
<path d="M46.701 0C45.99 0 45.2858 0.181673 44.6174 0.370074C42.314 1.00481 40.8606 1.86158 39.636 3.71644C38.8891 4.75937 38.4069 5.72605 37.9965 6.91701C37.4021 8.5902 37.29 10.2993 37.5142 12.0487C37.6645 13.3518 37.8888 14.6886 38.4069 15.9917C38.7433 16.7341 39.71 18.5194 40.3784 18.7773C41.1208 19.5242 41.9776 19.8943 43.0182 20.1186C44.2429 20.4169 45.5078 20.6008 46.8087 20.5626C48.668 20.5626 50.6395 20.1926 52.2387 19.1519C52.8375 18.7773 53.2054 18.7078 53.8782 18.2211C53.8782 18.8154 53.9119 19.264 53.8782 19.744C53.6539 22.0519 52.537 23.0186 50.1954 23.5748C49.0404 23.8372 47.6677 23.8372 46.5508 23.7251C44.9157 23.5008 43.7248 23.3146 42.2759 22.5341C41.7151 22.2403 41.271 21.8276 40.6722 21.6796C40.3021 21.7536 40.1541 22.016 39.9657 22.2403C39.5597 22.7584 38.8869 23.6892 38.5549 24.2454C38.1804 24.8443 38.4047 25.0641 39.1493 25.6607C40.042 26.255 40.5982 26.4793 41.677 26.9234C45.0234 28.3028 49.1166 28.0785 52.6491 27.778C58.5972 27.0356 60.9433 25.1381 61.8359 23.2406C62.8744 21.3858 62.9484 20.0827 63.0224 18.0349C63.0224 17.1041 62.9843 16.1756 62.9843 15.2448C62.9103 13.5716 63.2086 11.9366 63.0964 10.3015C62.9103 7.51137 63.1346 4.68536 63.1704 1.89971C63.1704 0.820891 62.9843 0.558475 61.9032 0.520346C60.7167 0.482217 59.5258 0.63249 58.3707 0.706504C57.7763 0.744633 57.2201 0.594361 56.6235 0.744633C55.9933 1.33899 55.3249 1.96924 54.6565 2.52996C54.2819 2.41781 54.0218 2.1554 53.7638 1.96924C52.7209 1.07658 51.4559 0.558475 50.1932 0.25793C49.0762 0 47.8853 0.0381288 46.6988 0L46.701 0ZM49.8971 4.68311C51.1262 4.23903 52.3127 4.3893 53.2794 5.35598C53.6898 5.76194 53.9478 6.17462 53.8782 6.80487C53.8401 7.21532 53.8401 7.6594 53.8401 8.07209L53.7661 11.7863C53.7661 12.421 53.8401 13.0535 53.8401 13.6838C53.8401 14.2445 53.6898 14.6886 53.2054 15.0631C52.611 15.5453 52.0929 16.0679 51.3079 16.2877C50.2336 16.5501 49.4149 16.1756 48.7421 15.3951C48.0355 14.6145 47.6991 13.6838 47.4793 12.7171C47.0689 11.1179 46.8805 9.81929 47.255 8.17975C47.6296 6.65684 48.298 5.28196 49.8949 4.68536L49.8971 4.68311Z" fill="#F7F3F2"/>
<path d="M84.4037 0.527069C77.8949 0.901628 71.348 0.453054 64.6575 0.639212C64.6193 1.71803 64.4332 3.05478 64.8077 4.02146C65.1016 4.24575 65.4021 4.28388 65.6623 4.24575L73.8061 4.13361C73.9519 4.13361 74.1381 4.02146 74.2884 4.31976C70.942 8.18423 67.71 12.4277 64.0272 15.9961C64.0272 17.4069 64.1394 18.6741 64.1394 19.9346C64.321 20.1589 64.4713 20.0849 64.6956 20.0849C71.9468 20.123 79.2698 20.4595 84.8478 19.9728C84.9599 19.4165 84.9218 17.0346 84.7738 16.4784C83.3249 16.6286 81.8401 16.7408 80.3486 16.7027C78.8257 16.6645 76.9663 16.9269 75.4412 16.7767C75.5533 16.3281 76.0714 15.884 76.2598 15.6216C78.1954 13.1679 80.0907 10.6783 82.0218 8.22012C82.8023 7.21531 83.6254 6.29125 84.48 5.32233C84.6998 5.05991 84.8119 4.76161 84.8119 4.39154C84.6998 3.38673 84.6998 2.38192 84.7379 1.37712C84.7379 1.07881 84.6639 0.820885 84.4059 0.522583L84.4037 0.527069Z" fill="#F7F3F2"/>
<path d="M103.751 0.462011C101.261 -0.13235 98.951 0.423882 96.6476 1.28066C95.5688 1.6911 94.638 2.28546 93.6713 2.95384C93.0029 2.39761 92.6665 1.3928 92.1843 0.762555C89.3201 0.426125 87.6851 0.724427 85.4512 0.762555C85.3817 7.19735 85.4131 13.7757 85.6373 20.1724H93.2631C93.7453 20.1724 94.2298 20.2105 94.638 19.8359C94.6761 18.2368 94.5258 16.7139 94.4877 15.1528C94.4137 12.7328 94.4496 10.3531 94.4496 7.9375C94.4496 7.37678 94.5617 6.82055 94.712 6.33833C95.5665 5.7036 96.3112 4.9971 97.2778 4.62702C98.8008 4.0663 100.44 5.03298 100.216 6.74429C100.216 7.89937 100.178 8.86605 100.254 9.94487C100.366 11.4678 100.328 13.0288 100.328 14.5899C100.328 16.0051 100.366 17.454 100.366 18.9029C100.366 19.2393 100.292 19.6498 100.474 20.0198C100.81 20.3563 101.147 20.3563 101.553 20.3563C102.484 20.2823 103.264 20.2441 104.193 20.2441C105.792 20.206 107.393 20.206 108.992 20.1701C109.179 20.1701 109.324 20.1701 109.475 19.984C109.401 17.1198 109.401 14.222 109.293 11.3197C109.219 9.57255 109.327 7.82536 109.219 6.07592C109.069 3.66034 107.727 2.09482 105.724 0.982357C105.09 0.645926 104.421 0.607797 103.753 0.459768L103.751 0.462011Z" fill="#F7F3F2"/>
<path d="M112.361 13.3496C111.731 13.7197 111.137 14.1682 110.762 14.8725C109.571 17.3262 110.688 19.4098 112.922 20.1522C113.516 20.3765 114.185 20.3765 114.819 20.3765C115.75 20.4146 116.643 20.1904 117.459 19.7777C119.426 18.811 120.617 15.8392 118.089 13.7556C116.49 12.4569 114.182 12.3448 112.361 13.3496Z" fill="#F7F3F2"/>
</svg>
