<svg xmlns="http://www.w3.org/2000/svg" xmlns:xlink="http://www.w3.org/1999/xlink" width="1366" zoomAndPan="magnify" viewBox="0 0 1024.5 120" height="768" preserveAspectRatio="xMidYMid meet" version="1.0"><defs><g/></defs><g fill="#000000" fill-opacity="1"><g transform="translate(130.357289, 138.95045)"><g><path d="M 182.484375 -115.875 C 169.90625 -113.703125 159.921875 -109.140625 149.28125 -101.328125 C 147.328125 -99.8125 145.15625 -98.296875 142.5625 -97.421875 C 140.828125 -100.25 139.515625 -102.84375 137.5625 -105.015625 C 129.96875 -113.265625 119.5625 -115 109.578125 -115.875 C 95.046875 -117.390625 83.328125 -113.484375 70.734375 -105.671875 C 67.484375 -103.71875 64.65625 -101.109375 60.96875 -99.8125 C 57.28125 -104.15625 55.546875 -109.796875 50.5625 -113.265625 C 44.921875 -113.265625 39.0625 -113.046875 32.984375 -113.046875 C 27.125 -112.828125 21.046875 -113.921875 14.328125 -112.828125 C 12.796875 -103.28125 14.53125 -93.953125 13.890625 -84.625 C 13.234375 -75.515625 13.890625 -66.1875 13.890625 -57.0625 C 13.890625 -47.515625 13.890625 -38.1875 13.453125 -28.859375 C 12.796875 -19.53125 13.015625 -10.203125 13.453125 -0.65625 C 14.109375 -0.21875 14.96875 0.4375 15.84375 0.65625 C 32.109375 1.078125 47.734375 0 64.65625 -0.4375 C 65.96875 -26.90625 63.578125 -53.15625 65.09375 -79.640625 C 65.75 -82.015625 67.484375 -83.109375 69 -84.40625 C 72.25 -87.015625 73.78125 -87.875 77.890625 -89.1875 C 86.578125 -91.78125 93.953125 -89.609375 93.953125 -78.546875 C 94.171875 -64.65625 95.25 -53.375 94.171875 -37.109375 C 94.171875 -26.03125 93.953125 -14.96875 93.734375 -3.90625 C 93.734375 -2.390625 93.515625 -0.875 95.25 0.65625 C 111.53125 -1.296875 128.453125 0.875 145.375 -0.21875 C 146.46875 -1.515625 146.6875 -3.25 146.46875 -5.203125 C 146.25 -7.375 146.03125 -9.546875 146.03125 -11.5 C 145.8125 -25.609375 145.8125 -39.703125 145.59375 -53.59375 C 145.375 -62.0625 146.25 -70.296875 146.890625 -79.421875 C 149.9375 -83.53125 152.75 -84.1875 156.234375 -87.015625 C 159.046875 -89.390625 161 -89.828125 164.6875 -90.046875 C 169.46875 -90.046875 174.453125 -85.921875 174.890625 -79.84375 C 175.109375 -75.515625 175.109375 -70.953125 175.109375 -66.609375 C 175.109375 -54.890625 174.890625 -43.1875 175.109375 -31.46875 C 175.109375 -22.125 175.109375 -12.796875 175.328125 -3.25 C 175.328125 -1.734375 175.75 -0.4375 177.703125 0.875 C 193.765625 0.4375 210.25 1.296875 226.75 -0.21875 C 228.484375 -2.171875 228.265625 -4.125 228.265625 -6.078125 C 228.046875 -11.0625 227.828125 -16.0625 227.828125 -20.828125 C 227.828125 -34.5 227.609375 -47.953125 228.265625 -61.40625 C 228.703125 -71.390625 228.484375 -81.15625 225.65625 -90.921875 C 223.703125 -97.640625 220.890625 -104.15625 214.8125 -108.703125 C 205.265625 -115.875 193.984375 -118.046875 182.484375 -115.875 Z M 182.484375 -115.875 "/></g></g></g><g fill="#000000" fill-opacity="1"><g transform="translate(351.893108, 138.95045)"><g><path d="M 64.015625 -117.171875 C 59.890625 -117.171875 55.765625 -116.09375 51.859375 -115 C 38.40625 -111.3125 29.9375 -106.328125 22.78125 -95.46875 C 18.4375 -89.390625 15.625 -83.75 13.234375 -76.8125 C 9.765625 -67.046875 9.109375 -57.0625 10.421875 -46.875 C 11.28125 -39.28125 12.578125 -31.46875 15.625 -23.875 C 17.578125 -19.53125 23.21875 -9.109375 27.125 -7.59375 C 31.46875 -3.25 36.453125 -1.078125 42.53125 0.21875 C 49.6875 1.953125 57.0625 3.03125 64.65625 2.828125 C 75.515625 2.828125 87.015625 0.65625 96.34375 -5.421875 C 99.8125 -7.59375 101.984375 -8.03125 105.890625 -10.84375 C 105.890625 -7.375 106.109375 -4.78125 105.890625 -1.953125 C 104.59375 11.5 98.078125 17.140625 84.40625 20.390625 C 77.6875 21.921875 69.65625 21.921875 63.140625 21.265625 C 53.59375 19.96875 46.65625 18.875 38.1875 14.328125 C 34.9375 12.578125 32.328125 10.203125 28.859375 9.328125 C 26.6875 9.765625 25.828125 11.28125 24.734375 12.578125 C 22.34375 15.625 18.4375 21.046875 16.484375 24.296875 C 14.328125 27.78125 15.625 29.078125 19.96875 32.546875 C 25.171875 36.015625 28.421875 37.328125 34.71875 39.921875 C 54.25 47.953125 78.109375 46.65625 98.734375 44.921875 C 133.453125 40.578125 147.109375 29.515625 152.328125 18.4375 C 158.40625 7.59375 158.828125 0 159.265625 -11.9375 C 159.265625 -17.359375 159.046875 -22.78125 159.046875 -28.203125 C 158.609375 -37.96875 160.34375 -47.515625 159.703125 -57.0625 C 158.609375 -73.34375 159.921875 -89.828125 160.140625 -106.109375 C 160.140625 -112.390625 159.046875 -113.921875 152.75 -114.140625 C 145.8125 -114.34375 138.875 -113.484375 132.140625 -113.046875 C 128.671875 -112.828125 125.421875 -113.703125 121.9375 -112.828125 C 118.25 -109.359375 114.34375 -105.671875 110.4375 -102.421875 C 108.28125 -103.0625 106.75 -104.59375 105.234375 -105.671875 C 99.15625 -110.875 91.78125 -113.921875 84.40625 -115.65625 C 77.890625 -117.171875 70.953125 -116.953125 64.015625 -117.171875 Z M 82.671875 -89.828125 C 89.828125 -92.4375 96.78125 -91.5625 102.421875 -85.921875 C 104.796875 -83.53125 106.328125 -81.15625 105.890625 -77.46875 C 105.671875 -75.078125 105.671875 -72.46875 105.671875 -70.078125 L 105.234375 -48.390625 C 105.234375 -44.703125 105.671875 -41.015625 105.671875 -37.328125 C 105.671875 -34.0625 104.796875 -31.46875 101.984375 -29.296875 C 98.515625 -26.46875 95.46875 -23.4375 90.921875 -22.125 C 84.625 -20.609375 79.84375 -22.78125 75.9375 -27.34375 C 71.828125 -31.890625 69.875 -37.328125 68.5625 -42.96875 C 66.1875 -52.296875 65.09375 -59.890625 67.265625 -69.4375 C 69.4375 -78.328125 73.34375 -86.359375 82.671875 -89.828125 Z M 82.671875 -89.828125 "/></g></g></g><g fill="#000000" fill-opacity="1"><g transform="translate(505.079916, 138.95045)"><g><path d="M 130.84375 -113.921875 C 92.875 -111.75 54.6875 -114.34375 15.625 -113.265625 C 15.40625 -106.96875 14.328125 -99.15625 16.484375 -93.515625 C 18.234375 -92.21875 19.96875 -92 21.484375 -92.21875 L 69 -92.875 C 69.875 -92.875 70.953125 -93.515625 71.828125 -91.78125 C 52.296875 -69.21875 33.421875 -44.484375 11.9375 -23.65625 C 11.9375 -15.40625 12.578125 -8.03125 12.578125 -0.65625 C 13.671875 0.65625 14.53125 0.21875 15.84375 0.21875 C 58.15625 0.4375 100.890625 2.390625 133.453125 -0.4375 C 134.09375 -3.6875 133.875 -17.578125 133.015625 -20.828125 C 124.546875 -19.96875 115.875 -19.3125 107.1875 -19.53125 C 98.296875 -19.75 87.4375 -18.234375 78.546875 -19.09375 C 79.203125 -21.703125 82.234375 -24.296875 83.328125 -25.828125 C 94.609375 -40.140625 105.671875 -54.6875 116.953125 -69 C 121.515625 -74.859375 126.28125 -80.28125 131.28125 -85.921875 C 132.578125 -87.4375 133.234375 -89.1875 133.234375 -91.34375 C 132.578125 -97.203125 132.578125 -103.0625 132.796875 -108.921875 C 132.796875 -110.65625 132.359375 -112.1875 130.84375 -113.921875 Z M 130.84375 -113.921875 "/></g></g></g><g fill="#000000" fill-opacity="1"><g transform="translate(628.540334, 138.95045)"><g><path d="M 120 -115 C 105.453125 -118.46875 92 -115.21875 78.546875 -110.234375 C 72.25 -107.84375 66.828125 -104.375 61.1875 -100.46875 C 57.28125 -103.71875 55.328125 -109.578125 52.515625 -113.265625 C 35.796875 -115.21875 26.25 -113.484375 13.234375 -113.265625 C 12.796875 -75.734375 13.015625 -37.328125 14.328125 0 L 58.796875 0 C 61.625 0 64.4375 0.21875 66.828125 -1.953125 C 67.046875 -11.28125 66.1875 -20.171875 65.96875 -29.296875 C 65.53125 -43.390625 65.75 -57.28125 65.75 -71.390625 C 65.75 -74.640625 66.390625 -77.890625 67.265625 -80.71875 C 72.25 -84.40625 76.59375 -88.53125 82.234375 -90.703125 C 91.140625 -93.953125 100.6875 -88.3125 99.375 -78.328125 C 99.375 -71.609375 99.15625 -65.96875 99.59375 -59.671875 C 100.25 -50.78125 100.03125 -41.65625 100.03125 -32.546875 C 100.03125 -24.296875 100.25 -15.84375 100.25 -7.375 C 100.25 -5.421875 99.8125 -3.03125 100.890625 -0.875 C 102.84375 1.078125 104.796875 1.078125 107.1875 1.078125 C 112.609375 0.65625 117.171875 0.4375 122.59375 0.4375 C 131.921875 0.21875 141.25 0.21875 150.59375 0 C 151.671875 0 152.546875 0 153.40625 -1.078125 C 152.96875 -17.796875 152.96875 -34.71875 152.328125 -51.640625 C 151.890625 -61.84375 152.546875 -72.03125 151.890625 -82.234375 C 151.015625 -96.34375 143.203125 -105.453125 131.5 -111.96875 C 127.796875 -113.921875 123.890625 -114.140625 120 -115 Z M 120 -115 "/></g></g></g><g fill="#000000" fill-opacity="1"><g transform="translate(775.000749, 138.95045)"><g><path d="M 24.078125 -39.28125 C 20.390625 -37.109375 16.921875 -34.5 14.75 -30.375 C 7.8125 -16.0625 14.328125 -3.90625 27.34375 0.4375 C 30.8125 1.734375 34.71875 1.734375 38.40625 1.734375 C 43.828125 1.953125 49.03125 0.65625 53.8125 -1.734375 C 65.3125 -7.375 72.25 -24.734375 57.5 -36.890625 C 48.171875 -44.484375 34.71875 -45.125 24.078125 -39.28125 Z M 24.078125 -39.28125 "/></g></g></g></svg>